G75*
%MOIN*%
%OFA0B0*%
%FSLAX24Y24*%
%IPPOS*%
%LPD*%
%AMOC8*
5,1,8,0,0,1.08239X$1,22.5*
%
%ADD10C,0.0110*%
D10*
X004344Y004137D02*
X004344Y004629D01*
X004640Y004629D01*
X004738Y004530D01*
X004738Y004333D01*
X004640Y004235D01*
X004344Y004235D01*
X004344Y004137D02*
X004443Y004038D01*
X004541Y004038D01*
X004093Y004333D02*
X003995Y004235D01*
X003798Y004235D01*
X003700Y004432D02*
X004093Y004432D01*
X004093Y004530D02*
X004093Y004333D01*
X004093Y004530D02*
X003995Y004629D01*
X003798Y004629D01*
X003700Y004530D01*
X003700Y004432D01*
X004989Y004432D02*
X005383Y004432D01*
X005383Y004530D02*
X005383Y004333D01*
X005284Y004235D01*
X005087Y004235D01*
X004989Y004432D02*
X004989Y004530D01*
X005087Y004629D01*
X005284Y004629D01*
X005383Y004530D01*
X005615Y004235D02*
X005812Y004235D01*
X005714Y004235D02*
X005714Y004826D01*
X005812Y004826D01*
X006143Y004826D02*
X006143Y004235D01*
X006045Y004235D02*
X006242Y004235D01*
X006493Y004333D02*
X006493Y004530D01*
X006591Y004629D01*
X006788Y004629D01*
X006886Y004530D01*
X006886Y004333D01*
X006788Y004235D01*
X006591Y004235D01*
X006493Y004333D01*
X007137Y004333D02*
X007236Y004235D01*
X007433Y004235D01*
X007531Y004333D01*
X007531Y004727D01*
X007433Y004826D01*
X007236Y004826D01*
X007137Y004727D01*
X006242Y004826D02*
X006143Y004826D01*
X008426Y004629D02*
X008426Y004137D01*
X008525Y004038D01*
X008623Y004038D01*
X008722Y004235D02*
X008426Y004235D01*
X008722Y004235D02*
X008820Y004333D01*
X008820Y004629D01*
X009053Y004629D02*
X009250Y004629D01*
X009151Y004727D02*
X009151Y004333D01*
X009053Y004235D01*
X009483Y004235D02*
X009680Y004235D01*
X009581Y004235D02*
X009581Y004629D01*
X009680Y004629D01*
X009581Y004826D02*
X009581Y004924D01*
X009930Y004727D02*
X010029Y004826D01*
X010226Y004826D01*
X010324Y004727D01*
X010324Y004333D01*
X010226Y004235D01*
X010029Y004235D01*
X009930Y004333D01*
X011219Y004235D02*
X011515Y004235D01*
X011613Y004333D01*
X011515Y004432D01*
X011219Y004432D01*
X011219Y004530D02*
X011219Y004235D01*
X011219Y004530D02*
X011318Y004629D01*
X011515Y004629D01*
X011864Y004530D02*
X011864Y004235D01*
X012258Y004235D02*
X012258Y004629D01*
X011962Y004629D01*
X011864Y004530D01*
X012509Y004530D02*
X012509Y004432D01*
X012902Y004432D01*
X012902Y004530D02*
X012902Y004333D01*
X012804Y004235D01*
X012607Y004235D01*
X012509Y004530D02*
X012607Y004629D01*
X012804Y004629D01*
X012902Y004530D01*
X013153Y004629D02*
X013448Y004629D01*
X013547Y004530D01*
X013547Y004333D01*
X013448Y004235D01*
X013153Y004235D01*
X013153Y004826D01*
X013798Y004530D02*
X013798Y004235D01*
X014093Y004235D01*
X014191Y004333D01*
X014093Y004432D01*
X013798Y004432D01*
X013798Y004530D02*
X013896Y004629D01*
X014093Y004629D01*
X014442Y004629D02*
X014737Y004629D01*
X014836Y004530D01*
X014737Y004432D01*
X014541Y004432D01*
X014442Y004333D01*
X014541Y004235D01*
X014836Y004235D01*
X015087Y004235D02*
X015382Y004235D01*
X015480Y004333D01*
X015382Y004432D01*
X015087Y004432D01*
X015087Y004530D02*
X015087Y004235D01*
X015087Y004530D02*
X015185Y004629D01*
X015382Y004629D01*
X015731Y004727D02*
X015731Y004530D01*
X015830Y004432D01*
X016125Y004432D01*
X016125Y004235D02*
X016125Y004826D01*
X015830Y004826D01*
X015731Y004727D01*
M02*
