%
M48
M72
T01C0.0197
T02C0.0276
T03C0.0315
T04C0.0320
T05C0.0354
T06C0.0394
T07C0.0400
T08C0.0472
T09C0.1300
%
T01
X2180Y5680
X10680Y8430
X11430Y8430
X20930Y12180
T02
X13664Y11680
X11696Y11680
X11696Y10680
X13664Y10680
X13664Y9680
X11696Y9680
X9180Y13430
X9180Y14430
X3430Y11664
X3430Y9696
X28446Y8930
X30414Y8930
X30414Y6430
X28446Y6430
T03
X14680Y1180
X13680Y1180
X12680Y1180
T04
X12180Y2930
X11180Y2930
X10180Y2930
X9180Y2930
X8180Y2930
X7180Y2930
X6180Y2930
X5180Y2930
X4180Y2930
X3180Y2930
X3180Y5930
X4180Y5930
X5180Y5930
X6180Y5930
X7180Y5930
X8180Y5930
X9180Y5930
X10180Y5930
X11180Y5930
X12180Y5930
X13180Y5930
X14180Y5930
X15180Y5930
X16180Y5930
X20930Y6180
X20930Y7180
X20930Y8180
X20930Y9180
X20930Y10180
X20930Y11180
X23930Y11180
X23930Y10180
X23930Y9180
X23930Y8180
X23930Y7180
X23930Y6180
X23930Y5180
X23930Y4180
X20930Y4180
X20930Y5180
X16180Y2930
X15180Y2930
X14180Y2930
X13180Y2930
X24680Y1180
X25680Y1180
T05
X23680Y1180
X19680Y1180
X19430Y3180
X25430Y3180
X25430Y7180
X25430Y8180
X19430Y8180
X19430Y7180
X19430Y12180
X25430Y12180
X930Y12930
X930Y8930
T06
X930Y6930
X27430Y4930
X27430Y3680
X27430Y2430
X27430Y1180
X31430Y1180
X31430Y2430
X31430Y3680
X31430Y4930
X31430Y10430
X31430Y11680
X31430Y12930
X31430Y14180
X27430Y14180
X27430Y12930
X27430Y11680
X27430Y10430
T07
X3180Y1230
X4180Y1130
X5180Y1230
X6180Y1130
X7180Y1230
X8180Y1130
X9180Y1230
X10180Y1130
X11180Y1230
X930Y1930
X930Y2930
X930Y3930
X930Y4930
X930Y5930
X3180Y7630
X4180Y7730
X5180Y7630
X6180Y7730
X7180Y7630
X8180Y7730
X9180Y7630
X10180Y7730
X11180Y7630
X12180Y7730
X13180Y7630
X14180Y7730
X15180Y7630
X16180Y7730
X17180Y7630
X16930Y10180
X15930Y10180
X14930Y10180
X14930Y11180
X15930Y11180
X16930Y11180
X9680Y10680
X8180Y10680
X7180Y10680
X6180Y10680
X5180Y10680
X5180Y9680
X6180Y9680
X7180Y9680
X8180Y9680
X9680Y9680
X9680Y11680
X8180Y11680
X7180Y11680
X6180Y11680
X5180Y11680
X5180Y13930
X4180Y13930
X6180Y13930
T08
X12430Y13680
X13808Y13680
X33680Y9680
X33680Y8302
X33680Y6930
X33680Y5552
T09
X33930Y1430
X17680Y1430
X17680Y13930
X33930Y13930
M30
